solid solid
 facet normal 0.5 0.866025 -0
  outer loop
   vertex 0 0.04 -0.0025
   vertex 0 0.04 0.0025
   vertex 0.00866025 0.035 0.0025
  endloop
 endfacet
 facet normal 0.5 0.866025 0
  outer loop
   vertex 0 0.04 -0.0025
   vertex 0.00866025 0.035 0.0025
   vertex 0.00866025 0.035 -0.0025
  endloop
 endfacet
 facet normal 1 0 -0
  outer loop
   vertex 0.00866025 0.035 -0.0025
   vertex 0.00866025 0.035 0.0025
   vertex 0.00866025 0.025 0.0025
  endloop
 endfacet
 facet normal 1 0 0
  outer loop
   vertex 0.00866025 0.035 -0.0025
   vertex 0.00866025 0.025 0.0025
   vertex 0.00866025 0.025 -0.0025
  endloop
 endfacet
 facet normal 0.5 -0.866025 0
  outer loop
   vertex 0.00866025 0.025 -0.0025
   vertex 0.00866025 0.025 0.0025
   vertex 0 0.02 0.0025
  endloop
 endfacet
 facet normal 0.5 -0.866025 0
  outer loop
   vertex 0.00866025 0.025 -0.0025
   vertex 0 0.02 0.0025
   vertex 0 0.02 -0.0025
  endloop
 endfacet
 facet normal -0.5 -0.866025 0
  outer loop
   vertex 0 0.02 -0.0025
   vertex 0 0.02 0.0025
   vertex -0.00866025 0.025 0.0025
  endloop
 endfacet
 facet normal -0.5 -0.866025 0
  outer loop
   vertex 0 0.02 -0.0025
   vertex -0.00866025 0.025 0.0025
   vertex -0.00866025 0.025 -0.0025
  endloop
 endfacet
 facet normal 0 -0 1
  outer loop
   vertex 0.00866025 0.025 0.0025
   vertex 0.00866025 0.035 0.0025
   vertex 0 0.04 0.0025
  endloop
 endfacet
 facet normal 0 0 1
  outer loop
   vertex 0 0.04 0.0025
   vertex -0.00866025 0.035 0.0025
   vertex -0.00866025 0.025 0.0025
  endloop
 endfacet
 facet normal -0 0 1
  outer loop
   vertex -0.00866025 0.025 0.0025
   vertex 0 0.02 0.0025
   vertex 0.00866025 0.025 0.0025
  endloop
 endfacet
 facet normal 0 0 1
  outer loop
   vertex 0 0.04 0.0025
   vertex -0.00866025 0.025 0.0025
   vertex 0.00866025 0.025 0.0025
  endloop
 endfacet
 facet normal -1 0 0
  outer loop
   vertex -0.00866025 0.025 -0.0025
   vertex -0.00866025 0.025 0.0025
   vertex -0.00866025 0.035 0.0025
  endloop
 endfacet
 facet normal -1 0 0
  outer loop
   vertex -0.00866025 0.025 -0.0025
   vertex -0.00866025 0.035 0.0025
   vertex -0.00866025 0.035 -0.0025
  endloop
 endfacet
 facet normal -0.5 0.866025 0
  outer loop
   vertex -0.00866025 0.035 -0.0025
   vertex -0.00866025 0.035 0.0025
   vertex 0 0.04 0.0025
  endloop
 endfacet
 facet normal -0.5 0.866025 0
  outer loop
   vertex -0.00866025 0.035 -0.0025
   vertex 0 0.04 0.0025
   vertex 0 0.04 -0.0025
  endloop
 endfacet
 facet normal 0 0 -1
  outer loop
   vertex -0.00866025 0.035 -0.0025
   vertex 0 0.04 -0.0025
   vertex 0.00866025 0.035 -0.0025
  endloop
 endfacet
 facet normal 0 -0 -1
  outer loop
   vertex 0.00866025 0.035 -0.0025
   vertex 0.00866025 0.025 -0.0025
   vertex 0 0.02 -0.0025
  endloop
 endfacet
 facet normal 0 0 -1
  outer loop
   vertex 0 0.02 -0.0025
   vertex -0.00866025 0.025 -0.0025
   vertex -0.00866025 0.035 -0.0025
  endloop
 endfacet
 facet normal -0 0 -1
  outer loop
   vertex 0.00866025 0.035 -0.0025
   vertex 0 0.02 -0.0025
   vertex -0.00866025 0.035 -0.0025
  endloop
 endfacet
endsolid solid
